<?xml version="1.0" encoding="utf-8" ?>
<svg xmlns="http://www.w3.org/2000/svg" xmlns:xlink="http://www.w3.org/1999/xlink" width="300" height="300" viewBox="0 0 300 300">
	<path d="M150 0C67.1573 0 0 67.1573 0 150L0 150.225C0 233.068 66.9323 300 149.775 300L150 300C232.843 300 300 233.068 300 150.225L300 150C300 67.1573 233.068 0 150.225 0L150 0Z" fill-rule="nonzero" transform="matrix(1 0 0 1 0 0)" fill="rgb(255, 228, 225)" fill-opacity="0.2"/>
	<defs>
		<clipPath id="clipPath9499286483">
			<path d="M0 0L128 0L128 128L0 128L0 0Z" fill-rule="nonzero" transform="matrix(1 0 0 1 86 86)"/>
		</clipPath>
	</defs>
	<g clip-path="url(#clipPath9499286483)">
		<path d="M57.4508 8C61.8691 8 65.6403 9.5621 68.7645 12.6863C71.8887 15.8105 73.4508 19.5817 73.4508 24L73.4508 40L41.4508 40L41.4508 24C41.4508 19.5817 43.0129 15.8105 46.1371 12.6863C49.2613 9.5621 53.0325 8 57.4508 8ZM81.4508 40L81.4508 24C81.4508 17.3726 79.1077 11.7157 74.4214 7.02944C69.7351 2.34315 64.0782 0 57.4508 0C50.8234 0 45.1665 2.34315 40.4802 7.02944C35.7939 11.7157 33.4508 17.3726 33.4508 24L33.4508 40L20.3308 40C17.3621 40.0007 14.7529 40.9696 12.5033 42.9067C10.2536 44.8438 8.90816 47.2803 8.46681 50.216L0.250807 105.04C-0.653699 111.084 0.888291 116.422 4.87678 121.052C8.86526 125.683 13.9153 127.999 20.0268 128L94.8668 128C100.98 128.001 106.032 125.686 110.022 121.055C114.013 116.424 115.556 111.086 114.651 105.04L106.427 50.216C105.986 47.2818 104.641 44.8462 102.393 42.9093C100.146 40.9724 97.538 40.0026 94.5708 40L81.4508 40ZM73.4508 48L73.4508 60C73.4508 61.1046 73.8413 62.0474 74.6224 62.8284C75.4034 63.6095 76.3462 64 77.4508 64C78.5554 64 79.4982 63.6095 80.2792 62.8284C81.0603 62.0474 81.4508 61.1046 81.4508 60L81.4508 48L94.5628 48C95.5523 48.001 96.4217 48.3246 97.1711 48.9708C97.9205 49.617 98.3684 50.4294 98.5148 51.408L106.739 106.216C107.284 109.844 106.36 113.048 103.967 115.828C101.574 118.609 98.5433 119.999 94.8748 120L20.0268 120C16.3583 119.999 13.3275 118.609 10.9344 115.828C8.5413 113.048 7.61743 109.844 8.16281 106.216L16.3868 51.408C16.533 50.4309 16.9799 49.6194 17.7275 48.9734C18.475 48.3274 19.3428 48.0029 20.3308 48L33.4508 48L33.4508 60C33.4508 61.1046 33.8413 62.0474 34.6224 62.8284C35.4034 63.6095 36.3462 64 37.4508 64C38.5554 64 39.4982 63.6095 40.2792 62.8284C41.0603 62.0474 41.4508 61.1046 41.4508 60L41.4508 48L73.4508 48Z" fill-rule="nonzero" transform="matrix(1 0 0 1 92.5492 86)" fill="rgb(244, 208, 63)"/>
	</g>
</svg>
