<?xml version="1.0" encoding="utf-8" ?>
<svg xmlns="http://www.w3.org/2000/svg" xmlns:xlink="http://www.w3.org/1999/xlink" width="290" height="250" viewBox="0 0 290 250">
	<defs>
		<linearGradient id="linearGradient7843228595" gradientTransform="matrix(176.777 176.777 -176.777 176.777 125 -51.7767)" gradientUnits="userSpaceOnUse" x1="0" y1="0.5" x2="1" y2="0.5">
			<stop offset="0" stop-color="rgb(212, 175, 55)" stop-opacity="0.1"/>
			<stop offset="1" stop-color="rgb(248, 183, 183)" stop-opacity="0.1"/>
		</linearGradient>
	</defs>
	<path d="M125 0C55.9644 0 0 55.9644 0 125L0 125.188C0 194.223 55.7769 250 124.813 250L125 250C194.036 250 250 194.223 250 125.188L250 125C250 55.9644 194.223 0 125.188 0L125 0Z" fill-rule="nonzero" transform="matrix(1 0 0 1 24 0)" fill="url(#linearGradient7843228595)"/>
	<defs>
		<clipPath id="clipPath9433053584">
			<path d="M0 0L128 0L128 128L0 128L0 0Z" fill-rule="nonzero" transform="matrix(1 0 0 1 85 61)"/>
		</clipPath>
	</defs>
	<g clip-path="url(#clipPath9433053584)">
		<path d="M90.6672 58.6661L90.6672 74.6661L106.667 74.6661L106.667 85.3328L90.6619 85.3328L90.6672 101.333L80.0005 101.333L79.9952 85.3328L64.0005 85.3328L64.0005 74.6661L80.0005 74.6661L80.0005 58.6661L90.6672 58.6661ZM97.2939 9.37259C109.36 21.4635 109.775 40.7253 98.5573 53.2907L90.9867 45.728C98.0805 37.5995 97.7072 24.8526 89.744 16.9072C81.7301 8.91158 68.8405 8.57072 60.464 16.09L53.3435 22.4813L46.2192 16.095C37.8186 8.56518 24.9336 8.89643 16.915 16.915C8.96975 24.8603 8.57087 37.5856 15.893 45.9904L60.864 91.0347L53.3328 98.5867L8.11402 53.296C-3.10908 40.7307 -2.68956 21.4347 9.37258 9.37259C21.4484 -2.7032 40.7743 -3.11002 53.3387 8.15216C65.8667 -3.09333 85.2267 -2.72 97.2939 9.37259Z" fill-rule="nonzero" transform="matrix(1 0 0 1 95.6667 77)" fill="rgb(212, 175, 55)"/>
	</g>
	<path d="M16 0C7.16344 0 0 7.16344 0 16L0 16.024C0 24.8606 7.13944 32 15.976 32L16 32C24.8366 32 32 24.8606 32 16.024L32 16C32 7.16344 24.8606 0 16.024 0L16 0Z" fill-rule="nonzero" transform="matrix(1 0 0 1 258 48)" fill="rgb(248, 183, 183)" fill-opacity="0.2"/>
	<path d="M12 0C5.37258 0 0 5.37258 0 12L0 12.018C0 18.6454 5.35458 24 11.982 24L12 24C18.6274 24 24 18.6454 24 12.018L24 12C24 5.37258 18.6454 0 12.018 0L12 0Z" fill-rule="nonzero" transform="matrix(1 0 0 1 0 162)" fill="rgb(212, 175, 55)" fill-opacity="0.2"/>
	<path d="M8 0C3.58172 0 0 3.58172 0 8L0 8.012C0 12.4303 3.56972 16 7.988 16L8 16C12.4183 16 16 12.4303 16 8.012L16 8C16 3.58172 12.4303 0 8.012 0L8 0Z" fill-rule="nonzero" transform="matrix(1 0 0 1 226 202)" fill="rgb(248, 183, 183)" fill-opacity="0.3"/>
</svg>
